<?xml version="1.0" encoding="utf-8"?>
<svg enable-background="new 0 0 1024 1024" height="999" id="Layer_1" version="1.1" viewBox="101 1 799 999" width="799" x="0px" xml:space="preserve" xmlns="http://www.w3.org/2000/svg" xmlns:xlink="http://www.w3.org/1999/xlink" y="0px">
<path d=" M681.000000,1025.000000   C454.000000,1025.000000 227.500000,1025.000000 1.000000,1025.000000   C1.000000,683.666687 1.000000,342.333344 1.000000,1.000000   C342.333344,1.000000 683.666687,1.000000 1025.000000,1.000000   C1025.000000,342.333344 1025.000000,683.666687 1025.000000,1025.000000   C910.500000,1025.000000 796.000000,1025.000000 681.000000,1025.000000  M757.978516,833.403503   C757.697083,833.199768 757.415710,832.996094 757.195984,832.920288   C757.195984,832.920288 757.304626,832.828979 757.256714,832.128967   C756.221191,830.359497 755.185730,828.590088 754.118530,826.936401   C754.118530,826.936401 754.238342,826.928894 754.170471,826.296509   C753.828735,825.802673 753.487000,825.308899 753.133606,824.932373   C753.133606,824.932373 753.247681,824.903015 753.144775,824.243652   C752.537842,823.423767 751.930847,822.603882 751.330566,821.939819   C751.330566,821.939819 751.389038,821.795227 751.606873,821.133423   C751.116943,820.369446 750.627014,819.605530 750.150330,818.948792   C750.150330,818.948792 750.247742,818.902039 750.136658,818.172913   C748.699951,815.137451 747.263306,812.101929 745.711121,808.369995   C743.873169,804.487488 742.035278,800.604919 740.091248,796.013123   C738.761353,793.290222 737.431458,790.567322 736.067505,787.956787   C736.067505,787.956787 736.184448,787.967468 736.097900,787.183167   C731.106506,773.053223 726.120483,758.921448 721.096313,744.803162   C720.954773,744.405334 720.406250,744.152283 720.035767,743.394104   C720.035767,743.394104 719.919922,742.971924 720.059692,742.211914   C719.651306,740.483276 719.242920,738.754578 718.912537,736.614136   C718.869629,736.319214 718.724365,736.088806 718.316772,735.460754   C718.316772,735.460754 718.061584,735.043518 718.057556,734.239746   C717.570312,732.310364 717.090332,730.379089 716.594604,728.451904   C710.300903,703.984497 704.684814,679.375305 703.141846,654.071899   C702.535400,644.126099 701.947937,634.049133 702.861755,624.171570   C704.199646,609.710510 706.896179,595.375244 709.211548,580.546143   C709.211548,580.546143 709.266663,580.066650 709.593567,579.832092   C709.786194,579.616943 709.859253,579.366821 710.090637,578.350281   C719.415283,544.620850 734.519043,513.476807 752.788818,483.810608   C765.672485,462.890320 778.138245,441.811188 785.829956,417.540100   C788.500793,406.002411 791.171692,394.464752 794.004578,382.268677   C793.976868,380.535675 793.949158,378.802673 794.040283,376.622681   C794.040283,376.622681 794.084778,376.162323 794.740967,375.701416   C795.127930,369.492218 795.514893,363.282990 796.029968,356.620941   C796.029968,356.620941 796.080322,356.152985 796.537476,355.939514   C796.657898,355.647400 796.778381,355.355286 797.036499,354.364105   C797.003601,353.891693 796.970764,353.419312 797.069031,352.027222   C797.075867,341.835724 797.123596,331.643890 797.045105,321.453033   C797.033325,319.932587 796.428223,318.416687 796.043701,316.970581   C796.043701,316.970581 796.133423,316.964661 796.044617,316.153900   C794.983948,304.461426 793.923340,292.768951 792.927551,280.262115   C791.842651,274.799957 790.757751,269.337799 789.545166,263.059753   C788.826477,260.304230 788.107849,257.548706 787.257446,254.007965   C786.664551,251.764114 786.186768,249.482361 785.462158,247.281891   C759.933655,169.758331 710.070679,114.146637 635.197083,81.466499   C597.350281,64.947479 557.377319,56.921318 516.301514,54.057533   C490.340759,52.247566 464.464752,53.443344 438.738312,57.073746   C405.852600,61.714428 374.113800,70.416687 344.260468,85.302269   C321.453033,96.674622 300.382874,110.617577 282.725952,129.105896   C248.750793,164.680725 228.653809,207.628143 216.839798,255.611404   C216.599823,256.728394 216.359833,257.845398 215.932373,259.761230   C214.325638,267.867828 212.718903,275.974396 210.970596,284.812347   C210.741257,286.521057 210.511932,288.229767 210.059875,290.625946   C210.066132,291.105652 210.072372,291.585327 209.936218,292.823242   C209.696594,294.866180 209.456970,296.909149 209.041595,299.641968   C209.061523,300.113953 209.081451,300.585907 208.965225,301.920868   C208.818970,304.412415 208.289993,306.952698 208.600098,309.386108   C209.442184,315.993866 210.639786,322.556335 211.640579,329.176514   C211.640579,329.176514 211.623169,329.242828 211.494034,329.932709   C211.970642,330.982758 212.447250,332.032837 212.979019,333.000793   C212.979019,333.000793 212.895401,333.053619 212.963211,333.649139   C213.276184,334.136292 213.589157,334.623444 213.937149,334.998383   C213.937149,334.998383 213.861771,335.088623 213.924271,335.530609   C213.924271,335.530609 214.112045,335.935577 214.241882,336.627777   C216.070709,340.335632 217.875992,344.055298 219.732986,347.748962   C224.319580,356.871918 224.424316,365.538849 217.355194,373.617554   C215.833557,375.356506 214.594162,377.353119 213.310669,379.288055   C204.794357,392.127014 196.301437,404.981506 187.220749,418.193481   C182.290695,425.866425 177.290787,433.495605 172.445999,441.222015   C163.916916,454.824158 155.482620,468.485748 146.451736,482.618195   C144.738480,488.318573 143.750168,493.963043 147.702805,499.122284   C147.702805,499.122284 147.638229,499.206512 147.753525,499.799805   C148.124176,500.251038 148.494827,500.702240 148.915634,500.989319   C148.915634,500.989319 148.837036,501.142242 149.058731,501.747009   C150.329880,502.884094 151.601028,504.021179 152.991653,505.060394   C152.991653,505.060394 152.849854,505.121490 153.205261,505.689606   C154.372467,506.264832 155.539673,506.840057 156.808670,507.145905   C156.808670,507.145905 156.756165,507.429047 157.028748,507.941071   C157.571899,508.118622 158.115051,508.296173 158.757721,508.454712   C158.757721,508.454712 158.801086,508.363129 159.144852,508.953308   C168.722778,511.466064 178.300690,513.978821 188.422150,516.895447   C198.462799,520.540405 200.809540,525.243408 197.634277,534.712036   C195.740952,540.357910 193.530807,546.022461 192.668900,551.856689   C191.670807,558.612793 191.996063,565.564453 191.819305,573.046509   C192.156189,573.759399 192.493088,574.472351 192.850525,575.081299   C192.850525,575.081299 192.748215,575.108765 192.852737,575.711243   C193.186432,576.192139 193.520111,576.672974 193.837418,577.019348   C193.837418,577.019348 193.820526,577.154175 193.933487,577.674683   C194.416153,578.151367 194.898819,578.628052 195.566742,579.645691   C195.712982,579.767944 195.859222,579.890137 196.210724,580.463379   C196.413620,580.747009 196.686386,580.921387 197.434219,581.516174   C200.088058,583.487122 202.741882,585.458008 204.716324,586.924377   C203.152695,588.795471 201.492981,590.837585 199.774185,592.828735   C193.410461,600.200806 193.317963,608.998779 199.765579,616.314514   C201.842239,618.670776 204.207733,620.843384 206.717285,622.733276   C213.207062,627.620850 214.961563,634.128784 213.616058,641.751526   C212.982590,645.340332 212.091019,648.885010 211.270966,652.439209   C208.606964,663.985046 206.123260,675.684448 208.356613,687.479126   C211.699661,705.134399 223.912415,715.111511 239.938766,721.020447   C256.552124,727.145935 273.858826,726.500244 291.133514,725.558899   C310.002991,724.530823 328.855713,722.783813 347.734314,722.471313   C361.342560,722.245972 374.732941,724.492554 384.057129,736.733887   C384.128784,736.965271 384.284546,737.099365 384.792450,737.843872   C386.210846,741.551880 387.995667,745.165833 388.976318,748.986206   C391.529663,758.932983 393.730255,768.970337 395.999176,779.679871   C396.120972,780.133667 396.242767,780.587524 396.440826,781.808350   C396.798401,783.590149 397.235321,785.360107 397.501404,787.155457   C400.717773,808.853638 404.401489,830.499329 406.887421,852.281494   C408.036194,862.347168 406.833923,872.681091 406.772888,882.960693   C406.772888,882.960693 406.821533,882.872253 406.175812,883.103333   C405.606598,885.048645 405.037354,886.993896 404.049255,889.598206   C396.378296,905.737793 388.707336,921.877380 380.620300,938.575073   C379.276642,940.915283 377.933014,943.255493 376.180664,946.307556   C421.842072,950.430908 466.056915,947.689453 510.742065,938.917419   C514.177734,938.154480 517.613403,937.391541 521.807800,936.537903   C526.862488,935.335022 531.917114,934.132141 537.521362,933.018372   C538.036133,932.859436 538.550964,932.700500 539.880615,932.333801   C548.292480,929.911743 556.704285,927.489624 565.023376,925.043152   C565.023376,925.043152 565.013550,925.138550 565.848633,925.095093   C566.676697,925.034912 567.569824,925.157166 568.323425,924.888245   C597.212891,914.580994 626.089478,904.237915 655.686279,893.833130   C692.120483,878.308777 727.452637,860.553589 762.622009,841.411865   C761.359375,839.452576 760.311890,837.827271 759.095154,835.554993   C758.742920,835.009399 758.390686,834.463806 758.004883,833.980713   C758.004883,833.980713 758.075562,833.974854 757.978516,833.403503  z" fill="#FCFBFC" opacity="1.000000" stroke="none"/>
<path d=" M187.800903,417.830963   C196.301437,404.981506 204.794357,392.127014 213.310669,379.288055   C214.594162,377.353119 215.833557,375.356506 217.355194,373.617554   C224.424316,365.538849 224.319580,356.871918 219.732986,347.748962   C217.875992,344.055298 216.070709,340.335632 214.324585,336.180603   C214.225464,335.518524 214.043625,335.303558 213.861771,335.088623   C213.861771,335.088623 213.937149,334.998383 213.921173,334.740356   C213.568588,334.006104 213.231995,333.529846 212.895401,333.053619   C212.895401,333.053619 212.979019,333.000793 212.968704,332.659119   C212.513321,331.292603 212.068253,330.267700 211.623169,329.242828   C211.623169,329.242828 211.640579,329.176514 211.762512,328.743774   C211.257614,321.121368 210.658356,313.929108 209.985489,306.743805   C209.806976,304.837616 209.402237,302.952606 209.101379,301.057892   C209.081451,300.585907 209.061523,300.113953 209.480774,299.211548   C209.972855,296.542450 210.025757,294.303741 210.078644,292.065033   C210.072372,291.585327 210.066132,291.105652 210.508087,290.201538   C211.008240,287.878387 211.060211,285.979706 211.112167,284.080994   C212.718903,275.974396 214.325638,267.867828 216.389587,259.289490   C218.344833,255.627731 221.187195,255.981461 224.000458,255.981750   C408.463409,256.001221 592.926392,256.012909 777.389282,255.925995   C782.983582,255.923355 787.886353,255.911102 788.442322,263.167511   C788.462708,263.433411 789.245422,263.640900 789.672852,263.875610   C790.757751,269.337799 791.842651,274.799957 792.631836,280.960144   C793.065918,289.452728 793.743164,297.252747 794.547241,305.039642   C794.958984,309.026733 795.597473,312.990387 796.133423,316.964661   C796.133423,316.964661 796.043701,316.970581 796.040161,317.410522   C796.025391,327.983734 795.974121,338.117249 796.044861,348.249939   C796.055847,349.817596 796.626221,351.381348 796.937866,352.946899   C796.970764,353.419312 797.003601,353.891693 796.762695,354.835266   C796.256287,355.542023 796.120056,355.824219 796.080322,356.152985   C796.080322,356.152985 796.029968,356.620941 795.690918,357.141022   C794.929504,363.828186 794.507141,369.995239 794.084839,376.162323   C794.084778,376.162323 794.040283,376.622681 793.719604,377.084900   C793.546814,379.340454 793.694702,381.133759 793.842590,382.927063   C791.171692,394.464752 788.500793,406.002411 785.107544,417.788025   C626.160645,418.023773 467.936127,418.022156 309.711639,417.992126   C269.074738,417.984406 228.437820,417.887115 187.800903,417.830963  z" fill="#FC8A45" opacity="1.000000" stroke="none"/>
<path d=" M187.510834,418.012207   C228.437820,417.887115 269.074738,417.984406 309.711639,417.992126   C467.936127,418.022156 626.160645,418.023773 784.880127,418.074097   C778.138245,441.811188 765.672485,462.890320 752.788818,483.810608   C734.519043,513.476807 719.415283,544.620850 709.743652,578.685669   C709.396606,579.021057 708.992615,578.902893 708.691284,578.615601   C706.906677,578.219177 705.423340,578.014465 703.940002,578.014343   C537.023804,577.998535 370.107605,578.002502 203.191422,577.961426   C200.067719,577.960693 196.944153,577.434998 193.820526,577.154175   C193.820526,577.154175 193.837418,577.019348 193.864990,576.757446   C193.511124,576.033325 193.129669,575.571045 192.748230,575.108765   C192.748215,575.108765 192.850525,575.081299 192.886566,574.783325   C192.530685,573.800598 192.138748,573.115906 191.746826,572.431213   C191.996063,565.564453 191.670807,558.612793 192.668900,551.856689   C193.530807,546.022461 195.740952,540.357910 197.634277,534.712036   C200.809540,525.243408 198.462799,520.540405 188.036865,516.331421   C184.282364,514.750122 180.947052,513.597168 177.536606,512.744995   C171.314926,511.190338 165.048706,509.813934 158.801086,508.363129   C158.801086,508.363129 158.757721,508.454712 158.680878,508.112549   C157.988068,507.656616 157.372116,507.542816 156.756165,507.429047   C156.756165,507.429047 156.808670,507.145905 156.704269,506.928711   C155.349869,506.181488 154.099869,505.651489 152.849854,505.121490   C152.849854,505.121490 152.991653,505.060394 152.946793,504.750732   C151.546967,503.341431 150.192001,502.241852 148.837036,501.142242   C148.837036,501.142242 148.915634,500.989319 148.900925,500.737762   C148.470215,500.059631 148.054230,499.633087 147.638229,499.206512   C147.638229,499.206512 147.702805,499.122284 147.795624,498.738708   C147.595154,492.944244 147.301895,487.533356 147.008636,482.122437   C155.482620,468.485748 163.916916,454.824158 172.445999,441.222015   C177.290787,433.495605 182.290695,425.866425 187.510834,418.012207  z" fill="#DF4F47" opacity="1.000000" stroke="none"/>
<path d=" M217.045364,254.943481   C228.653809,207.628143 248.750793,164.680725 282.725952,129.105896   C300.382874,110.617577 321.453033,96.674622 344.260468,85.302269   C374.113800,70.416687 405.852600,61.714428 438.738312,57.073746   C464.464752,53.443344 490.340759,52.247566 516.301514,54.057533   C557.377319,56.921318 597.350281,64.947479 635.197083,81.466499   C710.070679,114.146637 759.933655,169.758331 785.462158,247.281891   C786.186768,249.482361 786.664551,251.764114 786.825439,254.447632   C747.404846,254.917831 708.416138,254.974426 669.427490,254.974304   C518.633423,254.973831 367.839417,254.955276 217.045364,254.943481  z" fill="#FFD342" opacity="1.000000" stroke="none"/>
<path d=" M384.013794,736.423218   C374.732941,724.492554 361.342560,722.245972 347.734314,722.471313   C328.855713,722.783813 310.002991,724.530823 291.133514,725.558899   C273.858826,726.500244 256.552124,727.145935 239.938766,721.020447   C223.912415,715.111511 211.699661,705.134399 208.356613,687.479126   C206.123260,675.684448 208.606964,663.985046 211.270966,652.439209   C212.091019,648.885010 212.982590,645.340332 213.616058,641.751526   C214.961563,634.128784 213.207062,627.620850 206.717285,622.733276   C204.207733,620.843384 201.842239,618.670776 199.765579,616.314514   C193.317963,608.998779 193.410461,600.200806 199.774185,592.828735   C201.492981,590.837585 203.152695,588.795471 204.716324,586.924377   C202.741882,585.458008 200.088058,583.487122 197.691986,581.250366   C368.304382,580.985168 538.658997,580.985779 709.013672,580.986328   C706.896179,595.375244 704.199646,609.710510 702.861755,624.171570   C701.947937,634.049133 702.535400,644.126099 703.141846,654.071899   C704.684814,679.375305 710.300903,703.984497 716.594604,728.451904   C717.090332,730.379089 717.570312,732.310364 717.586243,734.627258   C608.129761,735.007324 499.144562,734.995056 390.159393,735.034790   C388.435028,735.035400 386.710968,735.672852 384.748749,736.128052   C384.345093,736.303040 384.179443,736.363098 384.013794,736.423218  z" fill="#68B95E" opacity="1.000000" stroke="none"/>
<path d=" M521.049072,936.628540   C517.613403,937.391541 514.177734,938.154480 510.078369,938.624756   C508.602142,938.229431 507.767914,937.952026 506.980164,938.049683   C488.324493,940.360901 469.681732,942.777527 451.020203,945.039612   C429.902100,947.599548 408.726990,947.412964 387.551636,945.903748   C385.058411,945.726135 382.622375,944.745911 380.562164,944.237061   C380.761353,941.624390 380.898865,939.820679 381.036377,938.016968   C388.707336,921.877380 396.378296,905.737793 404.581482,889.181274   C405.682953,886.800354 406.252258,884.836304 406.821533,882.872253   C406.821533,882.872253 406.772888,882.960693 407.096283,882.752014   C407.579712,882.256226 407.878204,881.969971 407.879913,881.681946   C407.949799,869.958069 409.087280,858.112671 407.803223,846.536255   C405.405975,824.924316 401.609863,803.466980 398.303711,781.959534   C398.242859,781.563416 397.036469,781.343445 396.364563,781.041321   C396.242767,780.587524 396.120972,780.133667 396.315369,779.074707   C396.608093,777.342957 396.774902,776.173462 396.532074,775.096436   C393.786591,762.920471 390.978363,750.758606 388.047180,737.983887   C389.459778,737.983887 391.380310,737.983887 393.300812,737.983887   C498.939911,737.984375 604.579041,738.004578 710.218079,737.915649   C714.589172,737.911987 718.385986,738.002258 719.919922,742.971924   C719.919922,742.971924 720.035767,743.394104 720.027710,744.021484   C723.369751,754.822693 726.552002,765.056335 730.147156,775.142822   C731.725952,779.572266 734.146240,783.701782 736.184448,787.967468   C736.184448,787.967468 736.067505,787.956787 736.050903,788.312561   C736.465759,790.911011 736.701843,793.221252 737.441345,795.357361   C737.680298,796.047668 739.241150,796.280396 740.197327,796.722412   C742.035278,800.604919 743.873169,804.487488 745.525391,808.947571   C746.975647,812.650757 748.611694,815.776428 750.247742,818.902039   C750.247742,818.902039 750.150330,818.948792 750.098328,819.265625   C750.493896,820.320068 750.941467,821.057678 751.389038,821.795227   C751.389038,821.795227 751.330566,821.939819 751.233948,822.208374   C751.840759,823.285583 752.544189,824.094299 753.247681,824.903015   C753.247681,824.903015 753.133606,824.932373 753.109985,825.211304   C753.470398,825.969788 753.854370,826.449341 754.238342,826.928894   C754.238342,826.928894 754.118530,826.936401 754.083008,827.259216   C755.133179,829.330994 756.218872,831.080017 757.304626,832.828979   C757.304626,832.828979 757.195984,832.920288 757.217712,833.125183   C757.518188,833.544983 757.796875,833.759888 758.075562,833.974854   C758.075562,833.974854 758.004883,833.980713 758.050293,834.292969   C758.485352,835.137451 758.874939,835.669678 759.264404,836.201904   C760.311890,837.827271 761.359375,839.452576 762.622009,841.411865   C727.452637,860.553589 692.120483,878.308777 655.199890,893.596008   C653.875977,893.326721 652.932861,893.025452 652.218140,893.306030   C647.596558,895.119995 643.069214,897.178345 638.427551,898.935913   C628.479919,902.702576 618.520508,906.445190 608.493896,909.994202   C597.149902,914.009644 585.721313,917.785767 574.342041,921.702393   C571.209473,922.780701 568.121826,923.989563 565.013550,925.138550   C565.013550,925.138550 565.023376,925.043152 564.648865,925.029663   C558.267822,926.472229 552.226257,927.801331 546.271423,929.444824   C543.774841,930.133911 541.462097,931.489258 539.065796,932.541626   C538.550964,932.700500 538.036133,932.859436 536.997131,932.696533   C531.331665,933.792664 526.190369,935.210632 521.049072,936.628540  z" fill="#3692CD" opacity="1.000000" stroke="none"/>
<path d=" M709.112610,580.766235   C538.658997,580.985779 368.304382,580.985168 197.489395,580.985474   C196.686386,580.921387 196.413620,580.747009 196.460236,580.230469   C197.809738,579.761841 198.909714,579.526062 200.475769,579.250671   C211.282410,579.238342 221.622986,579.265564 232.068451,579.432983   C232.461716,579.479980 232.750092,579.386780 233.357422,579.248535   C234.104492,579.224792 234.532623,579.246094 235.067581,579.406372   C235.462601,579.450623 235.750793,579.355957 236.403351,579.219666   C237.498520,579.213928 238.229370,579.249756 239.066040,579.425781   C239.461197,579.472900 239.750534,579.379944 240.358673,579.239807   C241.105164,579.223389 241.532867,579.254150 242.066772,579.424927   C242.461914,579.470947 242.750854,579.377014 243.470352,579.236511   C245.920654,579.218079 247.940384,579.246155 250.066315,579.414062   C250.461685,579.461975 250.750854,579.369995 251.484192,579.232422   C254.605942,579.217834 257.283539,579.248962 260.066345,579.421509   C260.460632,579.468872 260.749725,579.374756 261.502502,579.233521   C272.968994,579.209595 283.971832,579.232727 295.140808,579.437927   C295.879272,579.499512 296.451660,579.379028 297.350525,579.220215   C298.113068,579.215271 298.549133,579.248657 299.224060,579.489136   C300.647522,579.554321 301.832184,579.412537 303.481934,579.228577   C309.955536,579.215149 315.964050,579.243835 322.136108,579.457886   C322.874878,579.528381 323.450073,579.413574 324.489380,579.251709   C330.963196,579.238159 336.972931,579.271667 343.191772,579.501709   C344.273651,579.563721 345.146362,579.429260 346.483459,579.242676   C356.952454,579.220032 366.957092,579.249451 377.068726,579.417664   C377.463562,579.460876 377.751434,579.365356 378.448883,579.225342   C380.230408,579.209290 381.602356,579.237793 383.140808,579.447876   C383.879242,579.510376 384.451172,579.391235 385.487976,579.229309   C392.621979,579.214417 399.291138,579.242310 406.066467,579.410828   C406.461761,579.457947 406.750916,579.364502 407.497925,579.223083   C411.957550,579.212891 415.959320,579.250671 420.069000,579.427734   C420.464447,579.466858 420.751984,579.366699 421.503113,579.220032   C429.297791,579.213440 436.628845,579.253357 444.064514,579.435791   C444.459564,579.486145 444.750031,579.393982 445.403900,579.250000   C446.498962,579.231934 447.230682,579.265686 448.069061,579.440063   C448.463745,579.481201 448.751740,579.381714 449.502380,579.228149   C456.296570,579.224121 462.628082,579.274170 469.066467,579.461792   C469.462250,579.506470 469.751221,579.413635 470.478027,579.267700   C473.268951,579.242249 475.622070,579.269714 478.143372,579.477051   C478.883026,579.528809 479.454498,579.400818 480.490234,579.224365   C489.290039,579.208130 497.625580,579.240356 506.065948,579.415527   C506.460510,579.462891 506.750214,579.367249 507.484467,579.230347   C510.606598,579.219055 513.284241,579.248962 516.066528,579.419678   C516.459778,579.468750 516.748352,579.376953 517.489868,579.240723   C521.282410,579.221985 524.622009,579.247803 528.069214,579.411377   C528.464233,579.452881 528.751587,579.356628 529.500000,579.213867   C534.627502,579.209290 539.293823,579.251282 544.066467,579.432617   C544.461792,579.477844 544.750854,579.383850 545.502502,579.244873   C551.296814,579.223633 556.628601,579.247375 562.065063,579.412170   C562.459473,579.463196 562.749146,579.373169 563.502197,579.234131   C573.296997,579.216248 582.628296,579.247437 592.064453,579.420715   C592.459595,579.470886 592.749939,579.379028 593.503540,579.237610   C606.298035,579.216125 618.629211,579.244202 631.065552,579.413147   C631.460083,579.463501 631.749512,579.372925 632.403076,579.239136   C633.498169,579.229187 634.229187,579.262329 635.066223,579.435669   C635.461304,579.481873 635.750427,579.387878 636.492249,579.247925   C640.283264,579.235962 643.621582,579.270020 647.067505,579.443481   C647.463684,579.483826 647.752258,579.384705 648.461426,579.234863   C650.575806,579.214417 652.269592,579.244751 654.068237,579.414734   C654.460999,579.464966 654.748962,579.375549 655.481323,579.240417   C658.604065,579.227112 661.282471,579.259583 664.065918,579.433594   C664.460022,579.480713 664.748962,579.386169 665.357056,579.241394   C666.104736,579.219482 666.533264,579.247681 667.064331,579.418579   C667.457031,579.475525 667.747009,579.389893 668.356384,579.258179   C669.104492,579.232056 669.533203,579.251892 670.067383,579.411804   C670.461365,579.459778 670.749817,579.367615 671.502502,579.234497   C683.305176,579.215149 694.643738,579.236755 706.251709,579.474731   C707.436279,579.816284 708.351501,579.941467 709.266663,580.066650   C709.266663,580.066650 709.211548,580.546143 709.112610,580.766235  z" fill="#4DD263" opacity="1.000000" stroke="none"/>
<path d=" M719.989807,742.591919   C718.385986,738.002258 714.589172,737.911987 710.218079,737.915649   C604.579041,738.004578 498.939911,737.984375 393.300812,737.983887   C391.380310,737.983887 389.459778,737.983887 388.047180,737.983887   C390.978363,750.758606 393.786591,762.920471 396.532074,775.096436   C396.774902,776.173462 396.608093,777.342957 396.351562,778.720520   C393.730255,768.970337 391.529663,758.932983 388.976318,748.986206   C387.995667,745.165833 386.210846,741.551880 384.991333,737.448303   C385.783875,736.789551 386.377563,736.526367 387.436584,736.193054   C393.548126,736.109985 399.194427,736.077026 404.840668,736.087524   C435.559906,736.144653 466.279144,736.212585 497.101562,736.402954   C497.204742,736.529236 497.653473,736.588928 497.653473,736.588928   C497.653473,736.588928 498.005188,736.269897 498.333527,736.208069   C499.104675,736.178528 499.547455,736.210815 500.094788,736.374878   C500.470795,736.413452 500.742249,736.320190 501.477661,736.166260   C527.294067,736.164673 552.646484,736.223755 578.103394,736.407776   C578.207886,736.532715 578.656982,736.586304 578.656982,736.586304   C578.656982,736.586304 579.005066,736.263855 579.468506,736.195435   C583.251526,736.114197 586.571106,736.084961 589.890747,736.091003   C621.259949,736.148315 652.629150,736.211548 684.101318,736.399597   C684.204224,736.526123 684.653015,736.585083 684.653015,736.585083   C684.653015,736.585083 685.003235,736.264526 685.466919,736.197632   C696.337097,736.205566 706.743591,736.280396 717.310669,736.524658   C717.925720,736.804688 718.380127,736.915344 718.834595,737.025940   C719.242920,738.754578 719.651306,740.483276 719.989807,742.591919  z" fill="#1A83C7" opacity="1.000000" stroke="none"/>
<path d=" M216.942581,255.277435   C367.839417,254.955276 518.633423,254.973831 669.427490,254.974304   C708.416138,254.974426 747.404846,254.917831 786.891357,254.840240   C788.107849,257.548706 788.826477,260.304230 789.609009,263.467712   C789.245422,263.640900 788.462708,263.433411 788.442322,263.167511   C787.886353,255.911102 782.983582,255.923355 777.389282,255.925995   C592.926392,256.012909 408.463409,256.001221 224.000458,255.981750   C221.187195,255.981461 218.344833,255.627731 216.483322,258.890076   C216.359833,257.845398 216.599823,256.728394 216.942581,255.277435  z" fill="#FB6C48" opacity="1.000000" stroke="none"/>
<path d=" M376.961731,579.278931   C366.957092,579.249451 356.952454,579.220032 346.110413,579.135925   C344.509552,579.155945 343.746094,579.230591 342.982666,579.305176   C336.972931,579.271667 330.963196,579.238159 324.153687,579.146423   C322.893433,579.149719 322.433014,579.211121 321.972565,579.272583   C315.964050,579.243835 309.955536,579.215149 303.086365,579.124878   C301.145569,579.136169 300.065399,579.209106 298.985229,579.282104   C298.549133,579.248657 298.113068,579.215271 297.013733,579.121826   C295.891907,579.126404 295.433319,579.191162 294.974701,579.255859   C283.971832,579.232727 272.968994,579.209595 261.233093,579.156128   C260.320404,579.177246 260.140778,579.228638 259.961151,579.280090   C257.283539,579.248962 254.605942,579.217834 251.214462,579.155518   C250.320419,579.174316 250.140274,579.224243 249.960114,579.274170   C247.940384,579.246155 245.920654,579.218079 243.200409,579.162964   C242.320099,579.185547 242.140320,579.235229 241.960556,579.284851   C241.532867,579.254150 241.105164,579.223389 240.088821,579.166748   C239.320190,579.189026 239.140198,579.237305 238.960205,579.285645   C238.229370,579.249756 237.498520,579.213928 236.133331,579.143555   C235.319580,579.161865 235.140167,579.214600 234.960770,579.267395   C234.532623,579.246094 234.104492,579.224792 233.088715,579.171509   C232.321915,579.190613 232.142746,579.241760 231.963562,579.292847   C221.622986,579.265564 211.282410,579.238342 200.025970,579.131958   C197.867233,579.070068 196.624359,579.087402 195.381485,579.104736   C194.898819,578.628052 194.416153,578.151367 193.877014,577.414429   C196.944153,577.434998 200.067719,577.960693 203.191422,577.961426   C370.107605,578.002502 537.023804,577.998535 703.940002,578.014343   C705.423340,578.014465 706.906677,578.219177 708.312683,578.659424   C707.484314,579.079773 706.733276,579.169128 705.982239,579.258423   C694.643738,579.236755 683.305176,579.215149 671.233643,579.156250   C670.321106,579.169861 670.141541,579.220764 669.961975,579.271729   C669.533203,579.251892 669.104492,579.232056 668.089478,579.176270   C667.322754,579.185547 667.142212,579.230713 666.961731,579.275940   C666.533264,579.247681 666.104736,579.219482 665.087769,579.171143   C664.319885,579.197998 664.140381,579.244995 663.960815,579.291992   C661.282471,579.259583 658.604065,579.227112 655.213684,579.163818   C654.322205,579.180359 654.142761,579.227783 653.963379,579.275146   C652.269592,579.244751 650.575806,579.214417 648.189941,579.166138   C647.318481,579.200256 647.139160,579.252197 646.959900,579.304077   C643.621582,579.270020 640.283264,579.235962 636.222290,579.171570   C635.319824,579.192688 635.140015,579.244080 634.960205,579.295471   C634.229187,579.262329 633.498169,579.229187 632.134155,579.162354   C631.320862,579.176514 631.140686,579.224365 630.960449,579.272217   C618.629211,579.244202 606.298035,579.216125 593.233948,579.163086   C592.320557,579.184998 592.140076,579.231812 591.959656,579.278564   C582.628296,579.247437 573.296997,579.216248 563.233398,579.158325   C562.320862,579.178040 562.140564,579.224548 561.960327,579.271118   C556.628601,579.247375 551.296814,579.223633 545.232300,579.167053   C544.319763,579.187317 544.139954,579.240295 543.960205,579.293335   C539.293823,579.251282 534.627502,579.209290 529.229736,579.144409   C528.319519,579.172241 528.140564,579.222900 527.961609,579.273621   C524.622009,579.247803 521.282410,579.221985 517.221558,579.162231   C516.320801,579.178467 516.141357,579.228638 515.961853,579.278870   C513.284241,579.248962 510.606598,579.219055 507.214661,579.154053   C506.320587,579.170105 506.140839,579.221313 505.961090,579.272583   C497.625580,579.240356 489.290039,579.208130 480.151733,579.130005   C478.891022,579.155151 478.433075,579.226196 477.975159,579.297241   C475.622070,579.269714 473.268951,579.242249 470.207642,579.192444   C469.319489,579.221436 469.139557,579.272766 468.959625,579.324219   C462.628082,579.274170 456.296570,579.224121 449.231873,579.160278   C448.319916,579.197449 448.141144,579.248474 447.962372,579.299438   C447.230682,579.265686 446.498962,579.231934 445.134308,579.175903   C444.320862,579.200256 444.140381,579.246765 443.959930,579.293274   C436.628845,579.253357 429.297791,579.213440 421.232117,579.156738   C420.318726,579.189392 420.139923,579.238953 419.961090,579.288452   C415.959320,579.250671 411.957550,579.212891 407.228027,579.152283   C406.320282,579.176392 406.140289,579.223267 405.960297,579.270203   C399.291138,579.242310 392.621979,579.214417 385.151550,579.129395   C383.891632,579.136963 383.432953,579.201599 382.974304,579.266235   C381.602356,579.237793 380.230408,579.209290 378.178833,579.152954   C377.320038,579.176392 377.140869,579.227661 376.961731,579.278931  z" fill="#F92C3C" opacity="1.000000" stroke="none"/>
<path d=" M683.998352,736.273071   C652.629150,736.211548 621.259949,736.148315 589.890747,736.091003   C586.571106,736.084961 583.251526,736.114197 579.215698,736.145874   C578.332703,736.204163 578.165833,736.243530 577.998962,736.282837   C552.646484,736.223755 527.294067,736.164673 501.220703,736.115356   C500.329956,736.164490 500.160095,736.203796 499.990265,736.243042   C499.547455,736.210815 499.104675,736.178528 498.081238,736.154297   C497.333221,736.200439 497.165802,736.238647 496.998383,736.276733   C466.279144,736.212585 435.559906,736.144653 404.840668,736.087524   C399.194427,736.077026 393.548126,736.109985 387.111237,736.115112   C385.876007,736.075928 385.431366,736.044495 384.986755,736.013123   C386.710968,735.672852 388.435028,735.035400 390.159393,735.034790   C499.144562,734.995056 608.129761,735.007324 717.588257,735.029175   C718.061584,735.043518 718.316772,735.460754 718.059448,735.783325   C717.584778,736.189026 717.367371,736.272156 717.150024,736.355225   C706.743591,736.280396 696.337097,736.205566 685.215088,736.145081   C684.332397,736.197388 684.165344,736.235291 683.998352,736.273071  z" fill="#7AC63A" opacity="1.000000" stroke="none"/>
<path d=" M380.828339,938.296021   C380.898865,939.820679 380.761353,941.624390 380.562164,944.237061   C382.622375,944.745911 385.058411,945.726135 387.551636,945.903748   C408.726990,947.412964 429.902100,947.599548 451.020203,945.039612   C469.681732,942.777527 488.324493,940.360901 506.980164,938.049683   C507.767914,937.952026 508.602142,938.229431 509.681885,938.603577   C466.056915,947.689453 421.842072,950.430908 376.180664,946.307556   C377.933014,943.255493 379.276642,940.915283 380.828339,938.296021  z" fill="#1A83C7" opacity="1.000000" stroke="none"/>
<path d=" M565.431091,925.116821   C568.121826,923.989563 571.209473,922.780701 574.342041,921.702393   C585.721313,917.785767 597.149902,914.009644 608.493896,909.994202   C618.520508,906.445190 628.479919,902.702576 638.427551,898.935913   C643.069214,897.178345 647.596558,895.119995 652.218140,893.306030   C652.932861,893.025452 653.875977,893.326721 654.840698,893.629211   C626.089478,904.237915 597.212891,914.580994 568.323425,924.888245   C567.569824,925.157166 566.676697,925.034912 565.431091,925.116821  z" fill="#1A83C7" opacity="1.000000" stroke="none"/>
<path d=" M396.402710,781.424805   C397.036469,781.343445 398.242859,781.563416 398.303711,781.959534   C401.609863,803.466980 405.405975,824.924316 407.803223,846.536255   C409.087280,858.112671 407.949799,869.958069 407.879913,881.681946   C407.878204,881.969971 407.579712,882.256226 407.058624,882.718384   C406.833923,872.681091 408.036194,862.347168 406.887421,852.281494   C404.401489,830.499329 400.717773,808.853638 397.501404,787.155457   C397.235321,785.360107 396.798401,783.590149 396.402710,781.424805  z" fill="#1A83C7" opacity="1.000000" stroke="none"/>
<path d=" M736.141174,787.575317   C734.146240,783.701782 731.725952,779.572266 730.147156,775.142822   C726.552002,765.056335 723.369751,754.822693 720.033569,744.240234   C720.406250,744.152283 720.954773,744.405334 721.096313,744.803162   C726.120483,758.921448 731.106506,773.053223 736.141174,787.575317  z" fill="#1A83C7" opacity="1.000000" stroke="none"/>
<path d=" M158.972961,508.658203   C165.048706,509.813934 171.314926,511.190338 177.536606,512.744995   C180.947052,513.597168 184.282364,514.750122 187.765076,516.129517   C178.300690,513.978821 168.722778,511.466064 158.972961,508.658203  z" fill="#F92C3C" opacity="1.000000" stroke="none"/>
<path d=" M796.088989,316.559265   C795.597473,312.990387 794.958984,309.026733 794.547241,305.039642   C793.743164,297.252747 793.065918,289.452728 792.599365,281.367310   C793.923340,292.768951 794.983948,304.461426 796.088989,316.559265  z" fill="#FB6C48" opacity="1.000000" stroke="none"/>
<path d=" M209.033295,301.489380   C209.402237,302.952606 209.806976,304.837616 209.985489,306.743805   C210.658356,313.929108 211.257614,321.121368 211.790436,328.723877   C210.639786,322.556335 209.442184,315.993866 208.600098,309.386108   C208.289993,306.952698 208.818970,304.412415 209.033295,301.489380  z" fill="#FB6C48" opacity="1.000000" stroke="none"/>
<path d=" M539.473206,932.437744   C541.462097,931.489258 543.774841,930.133911 546.271423,929.444824   C552.226257,927.801331 558.267822,926.472229 564.695251,925.041809   C556.704285,927.489624 548.292480,929.911743 539.473206,932.437744  z" fill="#1A83C7" opacity="1.000000" stroke="none"/>
<path d=" M797.003418,352.487061   C796.626221,351.381348 796.055847,349.817596 796.044861,348.249939   C795.974121,338.117249 796.025391,327.983734 796.067139,317.374573   C796.428223,318.416687 797.033325,319.932587 797.045105,321.453033   C797.123596,331.643890 797.075867,341.835724 797.003418,352.487061  z" fill="#FB6C48" opacity="1.000000" stroke="none"/>
<path d=" M146.730194,482.370300   C147.301895,487.533356 147.595154,492.944244 147.810242,498.789734   C143.750168,493.963043 144.738480,488.318573 146.730194,482.370300  z" fill="#F92C3C" opacity="1.000000" stroke="none"/>
<path d=" M521.428467,936.583252   C526.190369,935.210632 531.331665,933.792664 536.722290,932.651978   C531.917114,934.132141 526.862488,935.335022 521.428467,936.583252  z" fill="#1A83C7" opacity="1.000000" stroke="none"/>
<path d=" M794.412903,375.931885   C794.507141,369.995239 794.929504,363.828186 795.626892,357.367432   C795.514893,363.282990 795.127930,369.492218 794.412903,375.931885  z" fill="#FB6C48" opacity="1.000000" stroke="none"/>
<path d=" M740.144287,796.367798   C739.241150,796.280396 737.680298,796.047668 737.441345,795.357361   C736.701843,793.221252 736.465759,790.911011 736.067871,788.256348   C737.431458,790.567322 738.761353,793.290222 740.144287,796.367798  z" fill="#1A83C7" opacity="1.000000" stroke="none"/>
<path d=" M750.192200,818.537476   C748.611694,815.776428 746.975647,812.650757 745.583130,809.295776   C747.263306,812.101929 748.699951,815.137451 750.192200,818.537476  z" fill="#1A83C7" opacity="1.000000" stroke="none"/>
<path d=" M210.007431,292.444153   C210.025757,294.303741 209.972855,296.542450 209.568649,298.866638   C209.456970,296.909149 209.696594,294.866180 210.007431,292.444153  z" fill="#FB6C48" opacity="1.000000" stroke="none"/>
<path d=" M757.280640,832.479004   C756.218872,831.080017 755.133179,829.330994 754.098816,827.201294   C755.185730,828.590088 756.221191,830.359497 757.280640,832.479004  z" fill="#1A83C7" opacity="1.000000" stroke="none"/>
<path d=" M148.947876,501.444641   C150.192001,502.241852 151.546967,503.341431 152.887054,504.799652   C151.601028,504.021179 150.329880,502.884094 148.947876,501.444641  z" fill="#F92C3C" opacity="1.000000" stroke="none"/>
<path d=" M211.041382,284.446655   C211.060211,285.979706 211.008240,287.878387 210.619446,289.857788   C210.511932,288.229767 210.741257,286.521057 211.041382,284.446655  z" fill="#FB6C48" opacity="1.000000" stroke="none"/>
<path d=" M406.498657,882.987793   C406.252258,884.836304 405.682953,886.800354 404.790894,888.851807   C405.037354,886.993896 405.606598,885.048645 406.498657,882.987793  z" fill="#1A83C7" opacity="1.000000" stroke="none"/>
<path d=" M793.923584,382.597870   C793.694702,381.133759 793.546814,379.340454 793.660156,377.308411   C793.949158,378.802673 793.976868,380.535675 793.923584,382.597870  z" fill="#FB6C48" opacity="1.000000" stroke="none"/>
<path d=" M153.027557,505.405548   C154.099869,505.651489 155.349869,506.181488 156.653381,507.063385   C155.539673,506.840057 154.372467,506.264832 153.027557,505.405548  z" fill="#F92C3C" opacity="1.000000" stroke="none"/>
<path d=" M191.783051,572.738892   C192.138748,573.115906 192.530685,573.800598 192.876297,574.835266   C192.493088,574.472351 192.156189,573.759399 191.783051,572.738892  z" fill="#F92C3C" opacity="1.000000" stroke="none"/>
<path d=" M753.196228,824.573364   C752.544189,824.094299 751.840759,823.285583 751.230591,822.130432   C751.930847,822.603882 752.537842,823.423767 753.196228,824.573364  z" fill="#1A83C7" opacity="1.000000" stroke="none"/>
<path d=" M195.474121,579.375244   C196.624359,579.087402 197.867233,579.070068 199.559906,579.171509   C198.909714,579.526062 197.809738,579.761841 196.357605,580.005005   C195.859222,579.890137 195.712982,579.767944 195.474121,579.375244  z" fill="#7CAA58" opacity="1.000000" stroke="none"/>
<path d=" M211.558594,329.587769   C212.068253,330.267700 212.513321,331.292603 212.941132,332.700195   C212.447250,332.032837 211.970642,330.982758 211.558594,329.587769  z" fill="#FB6C48" opacity="1.000000" stroke="none"/>
<path d=" M706.251709,579.474731   C706.733276,579.169128 707.484314,579.079773 708.614014,578.946655   C708.992615,578.902893 709.396606,579.021057 709.604736,579.051392   C709.859253,579.366821 709.786194,579.616943 709.430115,579.949341   C708.351501,579.941467 707.436279,579.816284 706.251709,579.474731  z" fill="#7CAA58" opacity="1.000000" stroke="none"/>
<path d=" M751.497925,821.464355   C750.941467,821.057678 750.493896,820.320068 750.091675,819.212036   C750.627014,819.605530 751.116943,820.369446 751.497925,821.464355  z" fill="#1A83C7" opacity="1.000000" stroke="none"/>
<path d=" M384.748749,736.128052   C385.431366,736.044495 385.876007,736.075928 386.645935,736.185303   C386.377563,736.526367 385.783875,736.789551 384.857300,737.094421   C384.284546,737.099365 384.128784,736.965271 384.035461,736.578552   C384.179443,736.363098 384.345093,736.303040 384.748749,736.128052  z" fill="#3692CD" opacity="1.000000" stroke="none"/>
<path d=" M192.800476,575.410034   C193.129669,575.571045 193.511124,576.033325 193.873184,576.824707   C193.520111,576.672974 193.186432,576.192139 192.800476,575.410034  z" fill="#F92C3C" opacity="1.000000" stroke="none"/>
<path d=" M212.929306,333.351379   C213.231995,333.529846 213.568588,334.006104 213.903656,334.796478   C213.589157,334.623444 213.276184,334.136292 212.929306,333.351379  z" fill="#FB6C48" opacity="1.000000" stroke="none"/>
<path d=" M717.310669,736.524658   C717.367371,736.272156 717.584778,736.189026 718.139526,736.014404   C718.724365,736.088806 718.869629,736.319214 718.873535,736.820068   C718.380127,736.915344 717.925720,736.804688 717.310669,736.524658  z" fill="#3692CD" opacity="1.000000" stroke="none"/>
<path d=" M754.204407,826.612671   C753.854370,826.449341 753.470398,825.969788 753.115845,825.152710   C753.487000,825.308899 753.828735,825.802673 754.204407,826.612671  z" fill="#1A83C7" opacity="1.000000" stroke="none"/>
<path d=" M759.179810,835.878418   C758.874939,835.669678 758.485352,835.137451 758.067139,834.261719   C758.390686,834.463806 758.742920,835.009399 759.179810,835.878418  z" fill="#1A83C7" opacity="1.000000" stroke="none"/>
<path d=" M156.892456,507.685059   C157.372116,507.542816 157.988068,507.656616 158.631104,508.122070   C158.115051,508.296173 157.571899,508.118622 156.892456,507.685059  z" fill="#F92C3C" opacity="1.000000" stroke="none"/>
<path d=" M147.695877,499.503174   C148.054230,499.633087 148.470215,500.059631 148.875854,500.819824   C148.494827,500.702240 148.124176,500.251038 147.695877,499.503174  z" fill="#F92C3C" opacity="1.000000" stroke="none"/>
<path d=" M796.308899,356.046265   C796.120056,355.824219 796.256287,355.542023 796.693848,355.184814   C796.778381,355.355286 796.657898,355.647400 796.308899,356.046265  z" fill="#FB6C48" opacity="1.000000" stroke="none"/>
<path d=" M213.893021,335.309631   C214.043625,335.303558 214.225464,335.518524 214.259674,335.834534   C214.112045,335.935577 213.924271,335.530609 213.893021,335.309631  z" fill="#FB6C48" opacity="1.000000" stroke="none"/>
<path d=" M758.027039,833.689209   C757.796875,833.759888 757.518188,833.544983 757.186890,833.061279   C757.415710,832.996094 757.697083,833.199768 758.027039,833.689209  z" fill="#1A83C7" opacity="1.000000" stroke="none"/>
<path d=" M299.224060,579.489136   C300.065399,579.209106 301.145569,579.136169 302.621277,579.166992   C301.832184,579.412537 300.647522,579.554321 299.224060,579.489136  z" fill="#7CAA58" opacity="1.000000" stroke="none"/>
<path d=" M343.191772,579.501709   C343.746094,579.230591 344.509552,579.155945 345.646057,579.188049   C345.146362,579.429260 344.273651,579.563721 343.191772,579.501709  z" fill="#7CAA58" opacity="1.000000" stroke="none"/>
<path d=" M383.140808,579.447876   C383.432953,579.201599 383.891632,579.136963 384.686707,579.172241   C384.451172,579.391235 383.879242,579.510376 383.140808,579.447876  z" fill="#7CAA58" opacity="1.000000" stroke="none"/>
<path d=" M322.136108,579.457886   C322.433014,579.211121 322.893433,579.149719 323.689575,579.193481   C323.450073,579.413574 322.874878,579.528381 322.136108,579.457886  z" fill="#7CAA58" opacity="1.000000" stroke="none"/>
<path d=" M478.143372,579.477051   C478.433075,579.226196 478.891022,579.155151 479.687439,579.178467   C479.454498,579.400818 478.883026,579.528809 478.143372,579.477051  z" fill="#7CAA58" opacity="1.000000" stroke="none"/>
<path d=" M295.140808,579.437988   C295.433319,579.191162 295.891907,579.126404 296.687286,579.160095   C296.451660,579.379028 295.879272,579.499512 295.140808,579.437988  z" fill="#7CAA58" opacity="1.000000" stroke="none"/>
<path d=" M242.066772,579.424927   C242.140320,579.235229 242.320099,579.185547 242.769836,579.209473   C242.750854,579.377014 242.461914,579.470947 242.066772,579.424927  z" fill="#7CAA58" opacity="1.000000" stroke="none"/>
<path d=" M239.066040,579.425781   C239.140198,579.237305 239.320190,579.189026 239.770020,579.213867   C239.750534,579.379944 239.461197,579.472900 239.066040,579.425781  z" fill="#7CAA58" opacity="1.000000" stroke="none"/>
<path d=" M235.067581,579.406372   C235.140167,579.214600 235.319580,579.161865 235.768982,579.185181   C235.750793,579.355957 235.462601,579.450623 235.067581,579.406372  z" fill="#7CAA58" opacity="1.000000" stroke="none"/>
<path d=" M232.068451,579.432983   C232.142746,579.241760 232.321915,579.190613 232.769791,579.216553   C232.750092,579.386780 232.461716,579.479980 232.068451,579.432983  z" fill="#7CAA58" opacity="1.000000" stroke="none"/>
<path d=" M377.068726,579.417664   C377.140869,579.227661 377.320038,579.176392 377.769287,579.197449   C377.751434,579.365356 377.463562,579.460876 377.068726,579.417664  z" fill="#7CAA58" opacity="1.000000" stroke="none"/>
<path d=" M420.069000,579.427734   C420.139923,579.238953 420.318726,579.189392 420.768494,579.203247   C420.751984,579.366699 420.464447,579.466858 420.069000,579.427734  z" fill="#7CAA58" opacity="1.000000" stroke="none"/>
<path d=" M635.066223,579.435669   C635.140015,579.244080 635.319824,579.192688 635.769592,579.217529   C635.750427,579.387878 635.461304,579.481873 635.066223,579.435669  z" fill="#7CAA58" opacity="1.000000" stroke="none"/>
<path d=" M444.064514,579.435791   C444.140381,579.246765 444.320862,579.200256 444.770935,579.227783   C444.750031,579.393982 444.459564,579.486145 444.064514,579.435791  z" fill="#7CAA58" opacity="1.000000" stroke="none"/>
<path d=" M448.069061,579.440063   C448.141144,579.248474 448.319916,579.197449 448.769226,579.214355   C448.751740,579.381714 448.463745,579.481201 448.069061,579.440063  z" fill="#7CAA58" opacity="1.000000" stroke="none"/>
<path d=" M469.066467,579.461792   C469.139557,579.272766 469.319489,579.221436 469.769775,579.245483   C469.751221,579.413635 469.462250,579.506470 469.066467,579.461792  z" fill="#7CAA58" opacity="1.000000" stroke="none"/>
<path d=" M506.065948,579.415527   C506.140839,579.221313 506.320587,579.170105 506.770142,579.195312   C506.750214,579.367249 506.460510,579.462891 506.065948,579.415527  z" fill="#7CAA58" opacity="1.000000" stroke="none"/>
<path d=" M516.066528,579.419678   C516.141357,579.228638 516.320801,579.178467 516.768677,579.206665   C516.748352,579.376953 516.459778,579.468750 516.066528,579.419678  z" fill="#7CAA58" opacity="1.000000" stroke="none"/>
<path d=" M528.069214,579.411377   C528.140564,579.222900 528.319519,579.172241 528.768677,579.191040   C528.751587,579.356628 528.464233,579.452881 528.069214,579.411377  z" fill="#7CAA58" opacity="1.000000" stroke="none"/>
<path d=" M544.066467,579.432617   C544.139954,579.240295 544.319763,579.187317 544.769714,579.212036   C544.750854,579.383850 544.461792,579.477844 544.066467,579.432617  z" fill="#7CAA58" opacity="1.000000" stroke="none"/>
<path d=" M562.065063,579.412170   C562.140564,579.224548 562.320862,579.178040 562.769897,579.207336   C562.749146,579.373169 562.459473,579.463196 562.065063,579.412170  z" fill="#7CAA58" opacity="1.000000" stroke="none"/>
<path d=" M592.064453,579.420654   C592.140076,579.231812 592.320557,579.184998 592.770691,579.212646   C592.749939,579.379028 592.459595,579.470886 592.064453,579.420654  z" fill="#7CAA58" opacity="1.000000" stroke="none"/>
<path d=" M631.065552,579.413147   C631.140686,579.224365 631.320862,579.176514 631.770020,579.205444   C631.749512,579.372925 631.460083,579.463501 631.065552,579.413147  z" fill="#7CAA58" opacity="1.000000" stroke="none"/>
<path d=" M647.067505,579.443481   C647.139160,579.252197 647.318481,579.200256 647.769287,579.216919   C647.752258,579.384705 647.463684,579.483826 647.067505,579.443481  z" fill="#7CAA58" opacity="1.000000" stroke="none"/>
<path d=" M654.068237,579.414795   C654.142761,579.227783 654.322205,579.180359 654.769287,579.209473   C654.748962,579.375549 654.460999,579.464966 654.068237,579.414795  z" fill="#7CAA58" opacity="1.000000" stroke="none"/>
<path d=" M664.065918,579.433594   C664.140381,579.244995 664.319885,579.197998 664.768616,579.221313   C664.748962,579.386169 664.460022,579.480713 664.065918,579.433594  z" fill="#7CAA58" opacity="1.000000" stroke="none"/>
<path d=" M667.064331,579.418579   C667.142212,579.230713 667.322754,579.185547 667.770142,579.222290   C667.747009,579.389893 667.457031,579.475525 667.064331,579.418579  z" fill="#7CAA58" opacity="1.000000" stroke="none"/>
<path d=" M670.067383,579.411743   C670.141541,579.220764 670.321106,579.169861 670.769531,579.197266   C670.749817,579.367615 670.461365,579.459778 670.067383,579.411743  z" fill="#7CAA58" opacity="1.000000" stroke="none"/>
<path d=" M406.066467,579.410828   C406.140289,579.223267 406.320282,579.176392 406.770172,579.200256   C406.750916,579.364502 406.461761,579.457947 406.066467,579.410828  z" fill="#7CAA58" opacity="1.000000" stroke="none"/>
<path d=" M260.066345,579.421509   C260.140778,579.228638 260.320404,579.177246 260.769440,579.203247   C260.749725,579.374756 260.460632,579.468872 260.066345,579.421509  z" fill="#7CAA58" opacity="1.000000" stroke="none"/>
<path d=" M250.066315,579.414062   C250.140274,579.224243 250.320419,579.174316 250.770309,579.201172   C250.750854,579.369995 250.461685,579.461975 250.066315,579.414062  z" fill="#7CAA58" opacity="1.000000" stroke="none"/>
<path d=" M578.103394,736.407776   C578.165833,736.243530 578.332703,736.204163 578.752319,736.214294   C579.005066,736.263855 578.656982,736.586304 578.656982,736.586304   C578.656982,736.586304 578.207886,736.532715 578.103394,736.407776  z" fill="#3692CD" opacity="1.000000" stroke="none"/>
<path d=" M684.101318,736.399658   C684.165344,736.235291 684.332397,736.197388 684.751343,736.211975   C685.003235,736.264526 684.653015,736.585083 684.653015,736.585083   C684.653015,736.585083 684.204224,736.526123 684.101318,736.399658  z" fill="#3692CD" opacity="1.000000" stroke="none"/>
<path d=" M500.094788,736.374878   C500.160095,736.203796 500.329956,736.164490 500.756775,736.176025   C500.742249,736.320190 500.470795,736.413452 500.094788,736.374878  z" fill="#3692CD" opacity="1.000000" stroke="none"/>
<path d=" M497.101562,736.403015   C497.165802,736.238647 497.333221,736.200439 497.752930,736.216064   C498.005188,736.269897 497.653473,736.588928 497.653473,736.588928   C497.653473,736.588928 497.204742,736.529236 497.101562,736.403015  z" fill="#3692CD" opacity="1.000000" stroke="none"/>
</svg>