<svg xmlns="http://www.w3.org/2000/svg" viewBox="0 0 1024 1024"><path fill="#FCFBFC" d="M681 1025H1V1h1024v1024H681m76.979-191.596c-.282-.204-.563-.408-.783-.484 0 0 .109-.091.06-.791-1.035-1.77-2.07-3.539-3.137-5.193 0 0 .12-.007.051-.64-.341-.493-.683-.987-1.036-1.364 0 0 .114-.029.01-.688-.606-.82-1.213-1.64-1.813-2.304 0 0 .058-.145.276-.807-.49-.764-.98-1.527-1.457-2.184 0 0 .098-.047-.013-.776-1.437-3.036-2.874-6.071-4.426-9.803-1.838-3.883-3.676-7.765-5.62-12.357-1.33-2.723-2.66-5.446-4.023-8.056 0 0 .116.01.03-.774-4.991-14.13-9.978-28.262-15.002-42.38-.141-.398-.69-.65-1.06-1.409 0 0-.116-.422.024-1.182-.409-1.729-.817-3.457-1.147-5.598-.043-.295-.189-.525-.596-1.153 0 0-.255-.417-.26-1.221-.487-1.93-.967-3.86-1.462-5.788-6.294-24.468-11.91-49.077-13.453-74.38-.607-9.946-1.194-20.023-.28-29.9 1.338-14.461 4.034-28.797 6.35-43.626 0 0 .055-.48.382-.714.192-.215.265-.465.497-1.482 9.324-33.73 24.428-64.873 42.698-94.54 12.883-20.92 25.35-41.999 33.041-66.27 2.67-11.538 5.342-23.075 8.175-35.271-.028-1.733-.056-3.466.035-5.646 0 0 .045-.46.701-.922.387-6.209.774-12.418 1.289-19.08 0 0 .05-.468.507-.681.12-.293.241-.585.5-1.576-.033-.472-.066-.945.032-2.337.007-10.191.055-20.383-.024-30.574-.012-1.52-.617-3.036-1.001-4.482 0 0 .09-.006 0-.817-1.06-11.693-2.12-23.385-3.116-35.892-1.085-5.462-2.17-10.924-3.383-17.202a447.244 447.244 0 01-2.288-9.052c-.592-2.244-1.07-4.526-1.795-6.726-25.528-77.524-75.391-133.135-150.265-165.816-37.847-16.519-77.82-24.545-118.895-27.408-25.961-1.81-51.837-.615-77.564 3.016-32.885 4.64-64.624 13.343-94.478 28.228-22.807 11.373-43.877 25.316-61.534 43.804-33.975 35.575-54.072 78.522-65.886 126.505-.24 1.117-.48 2.234-.908 4.15-1.606 8.107-3.213 16.213-4.961 25.051-.23 1.71-.46 3.418-.911 5.814.006.48.012.96-.124 2.197-.24 2.043-.479 4.086-.894 6.819.02.472.04.944-.077 2.279-.146 2.491-.675 5.032-.365 7.465.842 6.608 2.04 13.17 3.04 19.79 0 0-.017.067-.146.757.477 1.05.953 2.1 1.485 3.068 0 0-.084.053-.016.648.313.487.626.974.974 1.35 0 0-.075.09-.013.532 0 0 .188.405.318 1.097 1.829 3.708 3.634 7.427 5.491 11.121 4.587 9.123 4.691 17.79-2.378 25.869-1.521 1.739-2.76 3.735-4.044 5.67-8.517 12.839-17.01 25.694-26.09 38.905-4.93 7.673-9.93 15.303-14.775 23.029-8.53 13.602-16.963 27.264-25.994 41.396-1.714 5.7-2.702 11.345 1.25 16.504 0 0-.064.085.052.678.37.451.74.902 1.162 1.19 0 0-.079.152.143.757 1.27 1.137 2.542 2.274 3.933 3.313 0 0-.142.061.213.63 1.167.575 2.335 1.15 3.604 1.456 0 0-.053.283.22.795.543.178 1.086.355 1.729.514 0 0 .043-.092.387.498 9.578 2.513 19.156 5.026 29.277 7.942 10.04 3.645 12.388 8.348 9.212 17.817-1.893 5.646-4.103 11.31-4.965 17.145-.998 6.756-.673 13.707-.85 21.19.337.712.674 1.425 1.032 2.034 0 0-.103.028.002.63.333.481.667.962.984 1.308 0 0-.016.135.096.656.483.476.966.953 1.634 1.97.146.123.292.245.644.818.203.284.475.458 1.223 1.053l7.282 5.408c-1.563 1.871-3.223 3.914-4.942 5.905-6.364 7.372-6.456 16.17-.008 23.486a47.018 47.018 0 006.951 6.418c6.49 4.888 8.245 11.396 6.9 19.019-.634 3.588-1.526 7.133-2.346 10.687-2.664 11.546-5.148 23.245-2.914 35.04 3.343 17.655 15.555 27.633 31.582 33.541 16.613 6.126 33.92 5.48 51.195 4.539 18.869-1.028 37.722-2.775 56.6-3.088 13.609-.225 26.999 2.022 36.323 14.263.072.231.228.365.735 1.11 1.419 3.708 3.204 7.322 4.184 11.142 2.554 9.947 4.754 19.984 7.023 30.694.122.454.244.908.442 2.128.357 1.782.794 3.552 1.06 5.347 3.217 21.699 6.9 43.344 9.386 65.126 1.15 10.066-.053 20.4-.114 30.68 0 0 .049-.089-.597.142-.57 1.946-1.139 3.89-2.127 6.495-7.67 16.14-15.342 32.28-23.429 48.977l-4.44 7.733c45.662 4.123 89.877 1.381 134.562-7.39 3.436-.764 6.871-1.526 11.066-2.38 5.054-1.203 10.11-2.406 15.713-3.52.515-.159 1.03-.317 2.36-.684a4634.966 4634.966 0 0025.142-7.29s-.01.095.826.051c.828-.06 1.72.062 2.474-.207 28.89-10.307 57.766-20.65 87.363-31.055 36.434-15.524 71.767-33.28 106.936-52.421-1.263-1.96-2.31-3.585-3.527-5.857-.352-.546-.704-1.091-1.09-1.574 0 0 .07-.006-.026-.577z"/><path fill="#FC8A45" d="M187.8 417.831c8.501-12.85 16.994-25.704 25.51-38.543 1.284-1.935 2.524-3.931 4.045-5.67 7.07-8.08 6.965-16.746 2.378-25.869-1.857-3.694-3.662-7.413-5.408-11.568-.1-.662-.281-.877-.463-1.092 0 0 .075-.09.06-.349-.353-.734-.69-1.21-1.027-1.686 0 0 .084-.053.074-.395-.456-1.366-.9-2.391-1.346-3.416l.14-.5a801.32 801.32 0 00-1.778-22c-.178-1.905-.583-3.79-.884-5.685-.02-.472-.04-.944.38-1.846.492-2.67.545-4.908.598-7.147-.007-.48-.013-.96.43-1.863.5-2.324.551-4.222.603-6.121 1.607-8.107 3.214-16.213 5.278-24.792 1.955-3.661 4.797-3.308 7.61-3.307 184.463.02 368.926.03 553.39-.056 5.594-.003 10.496-.015 11.052 7.242.02.265.803.473 1.23.708 1.086 5.462 2.17 10.924 2.96 17.084.434 8.493 1.111 16.293 1.915 24.08.412 3.987 1.05 7.95 1.586 11.925 0 0-.09.006-.093.446-.015 10.573-.066 20.706.005 30.839.01 1.568.581 3.131.893 4.697.033.472.066.945-.175 1.888-.507.707-.643.99-.683 1.318 0 0-.05.468-.39.988-.76 6.687-1.183 12.854-1.605 19.021 0 0-.045.46-.365.923-.173 2.255-.025 4.049.123 5.842-2.671 11.538-5.342 23.075-8.735 34.861-158.947.236-317.172.234-475.396.204-40.637-.008-81.274-.105-121.911-.161z"/><path fill="#DF4F47" d="M187.51 418.012c40.928-.125 81.565-.028 122.202-.02 158.224.03 316.449.032 475.168.082-6.742 23.737-19.208 44.816-32.091 65.737-18.27 29.666-33.374 60.81-43.045 94.875-.347.335-.751.217-1.053-.07-1.784-.397-3.268-.602-4.751-.602-166.916-.015-333.832-.011-500.749-.053-3.123 0-6.247-.526-9.37-.807 0 0 .016-.135.044-.397-.354-.724-.735-1.186-1.117-1.648 0 0 .103-.028.139-.326-.356-.982-.748-1.667-1.14-2.352.25-6.867-.076-13.818.922-20.574.862-5.835 3.072-11.5 4.965-17.145 3.176-9.469.829-14.172-9.597-18.38-3.755-1.582-7.09-2.735-10.5-3.587-6.222-1.555-12.488-2.931-18.736-4.382 0 0-.043.092-.12-.25-.693-.456-1.309-.57-1.925-.684 0 0 .053-.283-.052-.5-1.354-.748-2.604-1.278-3.854-1.808 0 0 .142-.06.097-.37-1.4-1.41-2.755-2.51-4.11-3.609 0 0 .079-.153.064-.404-.43-.678-.847-1.105-1.263-1.531 0 0 .065-.085.158-.468-.2-5.795-.494-11.206-.787-16.617 8.474-13.636 16.908-27.298 25.437-40.9 4.845-7.726 9.845-15.356 15.065-23.21z"/><path fill="#FFD342" d="M217.045 254.943c11.609-47.315 31.706-90.262 65.681-125.837 17.657-18.488 38.727-32.431 61.534-43.804 29.854-14.885 61.593-23.588 94.478-28.228 25.727-3.63 51.603-4.826 77.564-3.016 41.075 2.863 81.048 10.89 118.895 27.408 74.874 32.68 124.737 88.292 150.265 165.816a27.618 27.618 0 011.363 7.166c-39.42.47-78.409.526-117.398.526-150.794 0-301.588-.019-452.382-.03z"/><path fill="#68B95E" d="M384.014 736.423c-9.281-11.93-22.671-14.177-36.28-13.952-18.878.313-37.731 2.06-56.6 3.088-17.275.941-34.582 1.587-51.195-4.539-16.027-5.908-28.24-15.886-31.582-33.54-2.234-11.796.25-23.495 2.914-35.04.82-3.555 1.712-7.1 2.345-10.688 1.346-7.623-.409-14.131-6.899-19.019a47.018 47.018 0 01-6.951-6.418c-6.448-7.316-6.356-16.114.008-23.486 1.719-1.991 3.379-4.034 4.942-5.905-1.974-1.466-4.628-3.437-7.024-5.674 170.612-.265 340.967-.264 511.322-.264-2.118 14.39-4.814 28.725-6.152 43.186-.914 9.877-.327 19.954.28 29.9 1.543 25.303 7.159 49.912 13.453 74.38.495 1.927.975 3.858.991 6.175-109.456.38-218.441.368-327.427.408-1.724 0-3.448.638-5.41 1.093-.404.175-.57.235-.735.295z"/><path fill="#3692CD" d="M521.05 936.629c-3.437.763-6.872 1.525-10.972 1.996-1.476-.396-2.31-.673-3.098-.575-18.656 2.31-37.298 4.728-55.96 6.99-21.118 2.56-42.293 2.373-63.468.864-2.494-.178-4.93-1.158-6.99-1.667l.474-6.22c7.671-16.14 15.342-32.28 23.545-48.836 1.102-2.38 1.671-4.345 2.24-6.309 0 0-.048.089.275-.12.484-.496.782-.782.784-1.07.07-11.724 1.207-23.57-.077-35.146-2.397-21.612-6.193-43.069-9.5-64.576-.06-.397-1.267-.617-1.938-.919-.122-.453-.244-.907-.05-1.966.293-1.732.46-2.902.217-3.979-2.745-12.176-5.554-24.337-8.485-37.112h5.254c105.639 0 211.278.02 316.917-.068 4.371-.004 8.168.086 9.702 5.056 0 0 .116.422.108 1.05 3.342 10.8 6.524 21.034 10.12 31.12 1.578 4.43 3.998 8.56 6.036 12.825 0 0-.116-.01-.133.346.415 2.598.65 4.908 1.39 7.044.24.69 1.8.923 2.756 1.365 1.838 3.883 3.676 7.765 5.328 12.226 1.45 3.703 3.087 6.828 4.723 9.954 0 0-.098.047-.15.364.396 1.054.843 1.792 1.291 2.53 0 0-.058.144-.155.412.607 1.078 1.31 1.886 2.014 2.695 0 0-.114.03-.138.308.36.759.744 1.238 1.128 1.718 0 0-.12.007-.155.33 1.05 2.072 2.136 3.821 3.222 5.57 0 0-.109.091-.087.296.3.42.579.635.858.85 0 0-.071.006-.026.318.435.844.825 1.377 1.214 1.909l3.358 5.21c-35.17 19.142-70.502 36.897-107.422 52.184-1.324-.27-2.267-.57-2.982-.29-4.621 1.814-9.149 3.872-13.79 5.63-9.948 3.767-19.907 7.51-29.934 11.058-11.344 4.016-22.773 7.792-34.152 11.708-3.133 1.079-6.22 2.288-9.328 3.437 0 0 .01-.096-.365-.11-6.381 1.443-12.423 2.772-18.378 4.416-2.496.689-4.809 2.044-7.205 3.097-.515.159-1.03.317-2.069.155-5.665 1.096-10.807 2.514-15.948 3.932z"/><path fill="#4DD263" d="M709.113 580.766c-170.454.22-340.809.22-511.624.22-.803-.065-1.075-.239-1.029-.756 1.35-.468 2.45-.704 4.016-.98 10.806-.012 21.147.016 31.592.183.394.047.682-.046 1.29-.184.746-.024 1.175-.003 1.71.157.395.045.683-.05 1.335-.186 1.096-.006 1.826.03 2.663.206.395.047.685-.046 1.293-.186.746-.017 1.174.014 1.708.185.395.046.684-.048 1.403-.188 2.45-.019 4.47.01 6.596.177.396.048.685-.044 1.418-.182 3.122-.014 5.8.017 8.582.19.395.047.684-.047 1.437-.188 11.466-.024 22.469-.001 33.638.204.738.062 1.31-.059 2.21-.218.762-.005 1.198.029 1.873.27 1.424.064 2.608-.077 4.258-.261 6.474-.014 12.482.015 18.654.229.739.07 1.314-.044 2.353-.206 6.474-.014 12.484.02 18.703.25 1.082.062 1.954-.073 3.291-.26 10.47-.022 20.474.007 30.586.176.395.043.682-.053 1.38-.193 1.781-.016 3.153.013 4.692.223.738.062 1.31-.057 2.347-.219 7.134-.015 13.803.013 20.578.182.396.047.685-.046 1.432-.188 4.46-.01 8.461.028 12.571.205.395.039.683-.061 1.434-.208 7.795-.007 15.126.033 22.562.216.395.05.685-.042 1.339-.186 1.095-.018 1.827.016 2.665.19.395.041.683-.058 1.433-.212 6.795-.004 13.126.046 19.564.234.396.044.685-.048 1.412-.194 2.791-.026 5.144.002 7.665.21.74.05 1.311-.077 2.347-.254 8.8-.016 17.136.016 25.576.192.395.047.684-.049 1.418-.186 3.123-.01 5.8.019 8.583.19.393.049.681-.043 1.423-.18 3.792-.018 7.132.008 10.58.171.394.042.682-.054 1.43-.197 5.128-.005 9.794.037 14.566.219.396.045.685-.05 1.437-.188 5.794-.021 11.126.002 16.562.167.394.051.684-.039 1.437-.178 9.795-.018 19.126.013 28.562.187.396.05.686-.042 1.44-.183 12.794-.022 25.125.006 37.562.175.394.05.684-.04 1.337-.174 1.095-.01 1.826.023 2.663.197.395.046.684-.048 1.426-.188 3.791-.012 7.13.022 10.576.195.396.04.684-.058 1.393-.208 2.115-.02 3.809.01 5.607.18.393.05.681-.04 1.413-.175 3.123-.013 5.801.02 8.585.194.394.047.683-.048 1.291-.193.748-.022 1.176.007 1.707.178.393.057.683-.03 1.292-.16.748-.027 1.177-.007 1.711.153.394.048.683-.044 1.436-.178 11.802-.019 23.14.003 34.749.24 1.184.342 2.1.467 3.015.593 0 0-.055.48-.154.7z"/><path fill="#1A83C7" d="M719.99 742.592c-1.604-4.59-5.4-4.68-9.772-4.676-105.639.089-211.278.068-316.917.068h-5.254c2.931 12.775 5.74 24.936 8.485 37.112.243 1.077.076 2.247-.18 3.625-2.622-9.75-4.822-19.788-7.376-29.735-.98-3.82-2.765-7.434-3.985-11.538.793-.658 1.387-.922 2.446-1.255 6.111-.083 11.757-.116 17.404-.105 30.719.057 61.438.125 92.26.315.104.126.552.186.552.186s.352-.32.68-.38c.772-.03 1.214.002 1.762.166.376.038.647-.055 1.383-.209 25.816-.001 51.168.058 76.625.242.105.125.554.178.554.178s.348-.322.812-.39c3.783-.082 7.102-.111 10.422-.105 31.369.057 62.738.12 94.21.309.103.126.552.185.552.185s.35-.32.814-.387c10.87.008 21.277.082 31.844.327.615.28 1.07.39 1.524.5.408 1.73.816 3.458 1.155 5.567z"/><path fill="#FB6C48" d="M216.943 255.277c150.896-.322 301.69-.303 452.484-.303 38.99 0 77.978-.056 117.464-.134 1.217 2.709 1.935 5.464 2.718 8.628-.364.173-1.146-.035-1.167-.3-.556-7.257-5.458-7.245-11.053-7.242-184.463.087-368.926.075-553.389.056-2.813 0-5.655-.354-7.517 2.908-.123-1.045.117-2.162.46-3.613z"/><path fill="#F92C3C" d="M376.962 579.279c-10.005-.03-20.01-.059-30.852-.143-1.6.02-2.364.095-3.127.17-6.01-.034-12.02-.068-18.83-.16-1.26.004-1.72.065-2.18.127-6.009-.03-12.017-.058-18.887-.148-1.94.011-3.02.084-4.1.157-.437-.033-.873-.067-1.972-.16-1.122.004-1.58.07-2.04.134-11.002-.023-22.005-.046-33.74-.1-.914.021-1.093.073-1.273.124a1208.97 1208.97 0 01-8.747-.124c-.894.018-1.074.068-1.254.118-2.02-.028-4.04-.056-6.76-.111-.88.023-1.06.072-1.24.122-.427-.03-.855-.062-1.871-.118-.769.022-.949.07-1.129.119-.73-.036-1.461-.072-2.827-.142-.813.018-.993.07-1.172.123-.428-.02-.857-.042-1.872-.095-.767.019-.946.07-1.125.12-10.341-.026-20.682-.054-31.938-.16-2.159-.062-3.402-.045-4.645-.027-.482-.477-.965-.954-1.504-1.69 3.067.02 6.19.546 9.314.546 166.917.042 333.833.038 500.749.053 1.483 0 2.967.205 4.373.645-.829.42-1.58.51-2.33.6-11.34-.022-22.678-.044-34.75-.103-.912.014-1.091.065-1.271.116-.429-.02-.858-.04-1.873-.096-.766.01-.947.055-1.127.1a86.592 86.592 0 00-1.874-.105c-.768.027-.948.074-1.127.121-2.679-.032-5.357-.065-8.747-.128-.892.016-1.071.064-1.25.111-1.694-.03-3.388-.06-5.774-.109-.872.034-1.05.086-1.23.138-3.338-.034-6.677-.068-10.738-.132-.902.02-1.082.072-1.262.123-.73-.033-1.462-.066-2.826-.133-.813.015-.993.062-1.174.11-12.33-.028-24.662-.056-37.726-.109-.913.022-1.094.069-1.274.116-9.332-.032-18.663-.063-28.727-.12-.912.019-1.092.066-1.273.112-5.331-.024-10.663-.047-16.728-.104-.912.02-1.092.073-1.272.126-4.666-.042-9.332-.084-14.73-.149-.91.028-1.09.079-1.268.13-3.34-.026-6.68-.052-10.74-.112-.901.016-1.08.067-1.26.117-2.678-.03-5.355-.06-8.747-.125-.894.016-1.074.067-1.254.119-8.335-.033-16.671-.065-25.81-.143-1.26.025-1.718.096-2.176.167-2.353-.027-4.706-.055-7.767-.105-.889.03-1.068.08-1.248.132-6.332-.05-12.663-.1-19.728-.164-.912.037-1.09.088-1.27.14a483.86 483.86 0 00-2.828-.124c-.813.024-.994.07-1.174.117-7.331-.04-14.662-.08-22.728-.136-.913.032-1.092.082-1.27.131-4.003-.037-8.004-.075-12.734-.136-.908.024-1.088.071-1.268.118-6.669-.028-13.338-.056-20.808-.14-1.26.007-1.719.072-2.178.136a640.669 640.669 0 01-4.795-.113c-.859.023-1.038.075-1.217.126z"/><path fill="#7AC63A" d="M683.998 736.273c-31.369-.061-62.738-.125-94.107-.182-3.32-.006-6.64.023-10.675.055-.883.058-1.05.098-1.217.137-25.353-.06-50.705-.118-76.778-.168-.891.05-1.06.089-1.23.128-.444-.032-.886-.064-1.91-.089-.748.046-.915.085-1.083.123-30.719-.064-61.438-.132-92.157-.19-5.647-.01-11.293.023-17.73.028-1.235-.04-1.68-.07-2.124-.102 1.724-.34 3.448-.978 5.172-.978 108.986-.04 217.97-.028 327.43-.006.473.015.728.432.47.754-.474.406-.692.49-.909.572-10.406-.075-20.813-.15-31.935-.21-.883.052-1.05.09-1.217.128z"/><path fill="#1A83C7" d="M380.828 938.296c.07 1.525-.067 3.328-.266 5.941 2.06.509 4.496 1.49 6.99 1.667 21.175 1.509 42.35 1.696 63.468-.864 18.662-2.262 37.304-4.68 55.96-6.99.788-.098 1.622.18 2.702.554-43.625 9.085-87.84 11.827-133.501 7.704 1.752-3.053 3.096-5.393 4.647-8.012zM565.431 925.117a148.838 148.838 0 018.911-3.415c11.38-3.916 22.808-7.692 34.152-11.708 10.027-3.549 19.986-7.291 29.934-11.058 4.641-1.758 9.169-3.816 13.79-5.63.715-.28 1.658.02 2.623.323-28.752 10.609-57.628 20.952-86.518 31.26-.753.268-1.646.146-2.892.228zM396.403 781.425c.633-.082 1.84.138 1.9.535 3.307 21.507 7.103 42.964 9.5 64.576 1.284 11.577.147 23.422.077 35.146-.002.288-.3.574-.821 1.036-.225-10.037.977-20.37-.172-30.437-2.486-21.782-6.17-43.427-9.386-65.126-.266-1.795-.703-3.565-1.098-5.73zM736.141 787.575c-1.995-3.873-4.415-8.003-5.994-12.432-3.595-10.087-6.777-20.32-10.113-30.903.372-.088.92.165 1.062.563a5522.297 5522.297 0 0115.045 42.772z"/><path fill="#F92C3C" d="M158.973 508.658a336.249 336.249 0 0118.564 4.087c3.41.852 6.745 2.005 10.228 3.385-9.464-2.151-19.042-4.664-28.792-7.472z"/><path fill="#FB6C48" d="M796.089 316.56c-.492-3.57-1.13-7.533-1.542-11.52-.804-7.787-1.481-15.587-1.948-23.673 1.324 11.402 2.385 23.094 3.49 35.192zM209.033 301.49c.37 1.463.774 3.348.952 5.254a933.122 933.122 0 011.805 21.98c-1.15-6.168-2.348-12.73-3.19-19.338-.31-2.433.219-4.974.433-7.897z"/><path fill="#1A83C7" d="M539.473 932.438c1.99-.949 4.302-2.304 6.798-2.993 5.955-1.644 11.997-2.973 18.424-4.403-7.99 2.448-16.403 4.87-25.222 7.396z"/><path fill="#FB6C48" d="M797.003 352.487c-.377-1.106-.947-2.67-.958-4.237-.07-10.133-.02-20.266.022-30.875.361 1.042.966 2.558.978 4.078.079 10.19.03 20.383-.042 31.034z"/><path fill="#F92C3C" d="M146.73 482.37c.572 5.163.865 10.574 1.08 16.42-4.06-4.827-3.072-10.471-1.08-16.42z"/><path fill="#1A83C7" d="M521.428 936.583c4.762-1.372 9.904-2.79 15.294-3.931-4.805 1.48-9.86 2.683-15.294 3.931z"/><path fill="#FB6C48" d="M794.413 375.932c.094-5.937.517-12.104 1.214-18.565a203.284 203.284 0 01-1.214 18.565z"/><path fill="#1A83C7" d="M740.144 796.368c-.903-.088-2.464-.32-2.703-1.01-.74-2.137-.975-4.447-1.373-7.102 1.363 2.311 2.693 5.034 4.076 8.112zM750.192 818.537c-1.58-2.76-3.216-5.886-4.609-9.241 1.68 2.806 3.117 5.841 4.61 9.241z"/><path fill="#FB6C48" d="M210.007 292.444c.019 1.86-.034 4.098-.438 6.423-.112-1.958.128-4 .438-6.423z"/><path fill="#1A83C7" d="M757.28 832.479c-1.061-1.399-2.147-3.148-3.181-5.278 1.087 1.39 2.122 3.158 3.182 5.278z"/><path fill="#F92C3C" d="M148.948 501.445c1.244.797 2.599 1.896 3.94 3.355-1.287-.779-2.558-1.916-3.94-3.355z"/><path fill="#FB6C48" d="M211.041 284.447c.02 1.533-.033 3.431-.422 5.41-.107-1.627.122-3.336.422-5.41z"/><path fill="#1A83C7" d="M406.499 882.988c-.247 1.848-.816 3.812-1.708 5.864.246-1.858.816-3.803 1.708-5.864z"/><path fill="#FB6C48" d="M793.924 382.598a25.182 25.182 0 01-.264-5.29c.29 1.495.317 3.228.264 5.29z"/><path fill="#F92C3C" d="M153.028 505.406c1.072.245 2.322.775 3.625 1.657-1.113-.223-2.28-.798-3.625-1.657zM191.783 572.739c.356.377.748 1.062 1.093 2.096-.383-.363-.72-1.076-1.093-2.096z"/><path fill="#1A83C7" d="M753.196 824.573c-.652-.479-1.355-1.287-1.965-2.443.7.474 1.307 1.294 1.965 2.443z"/><path fill="#7CAA58" d="M195.474 579.375c1.15-.288 2.393-.305 4.086-.203-.65.354-1.75.59-3.202.833-.499-.115-.645-.237-.884-.63z"/><path fill="#FB6C48" d="M211.559 329.588c.51.68.954 1.705 1.382 3.112-.494-.667-.97-1.717-1.382-3.112z"/><path fill="#7CAA58" d="M706.252 579.475c.481-.306 1.232-.395 2.362-.528.379-.044.783.074.99.104.255.316.182.566-.174.898-1.078-.008-1.994-.133-3.178-.474z"/><path fill="#1A83C7" d="M751.498 821.464c-.557-.406-1.004-1.144-1.406-2.252.535.394 1.025 1.157 1.406 2.252z"/><path fill="#3692CD" d="M384.749 736.128c.682-.084 1.127-.052 1.897.057-.268.341-.862.605-1.789.91-.572.004-.728-.13-.822-.516.144-.216.31-.276.714-.45z"/><path fill="#F92C3C" d="M192.8 575.41c.33.161.711.623 1.073 1.415-.353-.152-.687-.633-1.073-1.415z"/><path fill="#FB6C48" d="M212.93 333.351c.302.179.639.655.974 1.445-.315-.173-.628-.66-.975-1.445z"/><path fill="#3692CD" d="M717.31 736.525c.057-.253.275-.336.83-.51.584.074.73.304.734.805-.494.095-.948-.015-1.563-.295z"/><path fill="#1A83C7" d="M754.204 826.613c-.35-.164-.734-.643-1.088-1.46.371.156.713.65 1.088 1.46zM759.18 835.878c-.305-.208-.695-.74-1.113-1.616.324.202.676.747 1.113 1.616z"/><path fill="#F92C3C" d="M156.892 507.685c.48-.142 1.096-.028 1.74.437-.517.174-1.06-.003-1.74-.437zM147.696 499.503c.358.13.774.557 1.18 1.317-.381-.118-.752-.569-1.18-1.317z"/><path fill="#FB6C48" d="M796.309 356.046c-.189-.222-.053-.504.385-.861.084.17-.036.462-.385.861zM213.893 335.31c.15-.006.332.209.367.525-.148.1-.336-.304-.367-.525z"/><path fill="#1A83C7" d="M758.027 833.69c-.23.07-.509-.145-.84-.629.229-.065.51.139.84.628z"/><path fill="#7CAA58" d="M299.224 579.49c.841-.28 1.922-.354 3.397-.323-.789.246-1.973.387-3.397.322zM343.192 579.502c.554-.271 1.318-.346 2.454-.314-.5.241-1.372.376-2.454.314zM383.14 579.448c.293-.246.752-.311 1.547-.276-.236.22-.808.338-1.546.276zM322.136 579.458c.297-.247.757-.308 1.554-.265-.24.22-.815.335-1.554.265zM478.143 579.477c.29-.25.748-.322 1.544-.299-.233.223-.804.35-1.544.3zM295.14 579.438c.293-.247.752-.312 1.547-.278-.235.219-.808.34-1.546.278zM242.067 579.425c.073-.19.253-.24.703-.216-.02.168-.308.262-.703.216zM239.066 579.426c.074-.189.254-.237.704-.212-.02.166-.309.259-.704.212zM235.068 579.406c.072-.191.252-.244.701-.22-.018.17-.306.265-.701.22zM232.068 579.433c.075-.191.254-.242.702-.216-.02.17-.308.263-.702.216zM377.069 579.418c.072-.19.251-.242.7-.22-.018.167-.305.263-.7.22zM420.069 579.428c.07-.189.25-.239.7-.225-.017.164-.305.264-.7.225zM635.066 579.436c.074-.192.254-.243.704-.218-.02.17-.309.264-.704.218zM444.065 579.436c.075-.19.256-.236.706-.208-.021.166-.311.258-.706.208zM448.07 579.44c.071-.192.25-.243.7-.226-.018.168-.306.267-.7.226zM469.066 579.462c.074-.19.253-.24.704-.217-.019.169-.308.261-.704.217zM506.066 579.416c.075-.195.255-.246.704-.22-.02.171-.31.267-.704.22zM516.067 579.42c.074-.191.254-.242.702-.213-.02.17-.31.262-.702.213zM528.07 579.411c.07-.188.25-.239.699-.22-.017.166-.305.262-.7.22zM544.066 579.433c.074-.193.254-.246.704-.221-.02.172-.308.266-.704.22zM562.065 579.412c.076-.187.256-.234.705-.205-.02.166-.31.256-.705.205zM592.064 579.42c.076-.188.257-.235.707-.207-.021.166-.311.258-.707.208zM631.066 579.413c.075-.189.255-.236.704-.208-.02.168-.31.259-.704.208zM647.068 579.443c.071-.19.25-.243.701-.226-.017.168-.305.267-.701.226zM654.068 579.415c.075-.187.254-.235.701-.206-.02.167-.308.256-.7.206zM664.066 579.434c.074-.189.254-.236.703-.213-.02.165-.309.26-.703.213zM667.064 579.419c.078-.188.259-.233.706-.197-.023.168-.313.254-.706.197zM670.067 579.412c.075-.191.254-.242.703-.215-.02.17-.309.263-.703.215zM406.066 579.41c.074-.187.254-.234.704-.21-.02.165-.308.258-.704.21zM260.066 579.422c.075-.193.254-.245.703-.219-.02.172-.308.266-.703.219zM250.066 579.414c.074-.19.254-.24.704-.213-.02.169-.308.261-.704.213z"/><path fill="#3692CD" d="M578.103 736.408c.063-.164.23-.204.65-.194.252.05-.096.372-.096.372s-.45-.053-.554-.178zM684.101 736.4c.064-.165.231-.203.65-.188.252.053-.098.373-.098.373s-.449-.059-.552-.185zM500.095 736.375c.065-.171.235-.21.662-.199-.015.144-.286.237-.662.199zM497.102 736.403c.064-.164.231-.203.65-.187.253.054-.099.373-.099.373s-.448-.06-.551-.186z"/></svg>